# xmcd
#
# Track frame offsets: 
#        150
#        20662
#        37130
#        53692
#        68680
#        88295
#        106117
#        118312
#        133187
#        152137
#        175840
#        188795
#        207487
#
# Disc length: 2987 seconds
#
# Revision: 0
# Processed by: cddbd v1.5.2PL0 Copyright (c) Steve Scherf et al.
# Submitted via: ExactAudioCopy v0.95b3
#
DISCID=bd0ba90d
DTITLE=Angelique Kidjo - Oyaya!
DYEAR=2004
DGENRE=R&B
TTITLE0=Seyin Djro
TTITLE1=Congoleo
TTITLE2=Bala Bala
TTITLE3=Oulala
TTITLE4=N'Yin Wan Nou We
TTITLE5=Conga Habanera
TTITLE6=Le Monde Comme Un Bibi
TTITLE7=Mutoto Kwanza
TTITLE8=Adje Dada
TTITLE9=Djovamin Yi
TTITLE10=Dje Dje L'Aye
TTITLE11=Macumba
TTITLE12=Bissimilai
EXTD=
EXTT0=
EXTT1=
EXTT2=
EXTT3=
EXTT4=
EXTT5=
EXTT6=
EXTT7=
EXTT8=
EXTT9=
EXTT10=
EXTT11=
EXTT12=
PLAYORDER=
